{
  "accessors": [
    {
      "bufferView": 1,
      "componentType": 5126,
      "count": 2850,
      "max": [
        20,
        20.000030517578125,
        120.00004577636719
      ],
      "min": [
        -260,
        -260,
        -159.99996948242188
      ],
      "type": "VEC3"
    },
    {
      "bufferView": 1,
      "byteOffset": 34200,
      "componentType": 5126,
      "count": 2850,
      "max": [
        1,
        1,
        1
      ],
      "min": [
        -1,
        -1,
        -1
      ],
      "type": "VEC3"
    },
    {
      "bufferView": 2,
      "componentType": 5126,
      "count": 2850,
      "max": [
        1,
        1,
        0.92416566610336304,
        1
      ],
      "min": [
        -1,
        -1,
        -0.89383590221405029,
        -1
      ],
      "type": "VEC4"
    },
    {
      "bufferView": 0,
      "componentType": 5125,
      "count": 5226,
      "max": [
        2849
      ],
      "min": [
        0
      ],
      "type": "SCALAR"
    },
    {
      "bufferView": 1,
      "byteOffset": 68400,
      "componentType": 5126,
      "count": 5674,
      "max": [
        20,
        20.000030517578125,
        120.00004577636719
      ],
      "min": [
        -260,
        -260,
        -159.99996948242188
      ],
      "type": "VEC3"
    },
    {
      "bufferView": 1,
      "byteOffset": 136488,
      "componentType": 5126,
      "count": 5674,
      "max": [
        1,
        1,
        1
      ],
      "min": [
        -1,
        -1,
        -1
      ],
      "type": "VEC3"
    },
    {
      "bufferView": 2,
      "byteOffset": 45600,
      "componentType": 5126,
      "count": 5674,
      "max": [
        1,
        1,
        0.95841574668884277,
        1
      ],
      "min": [
        -1,
        -1,
        -0.9584159255027771,
        -1
      ],
      "type": "VEC4"
    },
    {
      "bufferView": 0,
      "byteOffset": 20904,
      "componentType": 5125,
      "count": 16758,
      "max": [
        5673
      ],
      "min": [
        0
      ],
      "type": "SCALAR"
    }
  ],
  "asset": {
    "extras": {
      "author": "tomciomalina (https://sketchfab.com/tomciomalina)",
      "license": "CC-BY-4.0 (http://creativecommons.org/licenses/by/4.0/)",
      "source": "https://sketchfab.com/models/044a6f65abc14b959ff636ce0f37a858",
      "title": "Impossible Cube"
    },
    "generator": "Sketchfab-3.19.8",
    "version": "2.0"
  },
  "bufferViews": [
    {
      "buffer": 0,
      "byteLength": 87936,
      "byteOffset": 0,
      "name": "floatBufferViews",
      "target": 34963
    },
    {
      "buffer": 0,
      "byteLength": 204576,
      "byteOffset": 87936,
      "byteStride": 12,
      "name": "floatBufferViews",
      "target": 34962
    },
    {
      "buffer": 0,
      "byteLength": 136384,
      "byteOffset": 292512,
      "byteStride": 16,
      "name": "floatBufferViews",
      "target": 34962
    }
  ],
  "buffers": [
    {
      "byteLength": 428896,
      "uri": "scene.bin"
    }
  ],
  "materials": [
    {
      "doubleSided": true,
      "name": "07_-_Default",
      "pbrMetallicRoughness": {
        "baseColorFactor": [
          0.00012729160000000001,
          0.00095337310000000001,
          0.0050976149999999998,
          1
        ],
        "metallicFactor": 0,
        "roughnessFactor": 0.89297135959999996
      }
    },
    {
      "doubleSided": true,
      "emissiveFactor": [
        0.0024880163896743635,
        0.24003141568780334,
        0.32202743900000003
      ],
      "name": "01_-_Default",
      "pbrMetallicRoughness": {
        "baseColorFactor": [
          0.1002182397,
          1,
          1,
          1
        ],
        "metallicFactor": 0.28830030490000003,
        "roughnessFactor": 1
      }
    }
  ],
  "meshes": [
    {
      "name": "Box045_07 - Default_0",
      "primitives": [
        {
          "attributes": {
            "NORMAL": 1,
            "POSITION": 0,
            "TANGENT": 2
          },
          "indices": 3,
          "material": 0,
          "mode": 4
        }
      ]
    },
    {
      "name": "Box045_01 - Default_0",
      "primitives": [
        {
          "attributes": {
            "NORMAL": 5,
            "POSITION": 4,
            "TANGENT": 6
          },
          "indices": 7,
          "material": 1,
          "mode": 4
        }
      ]
    }
  ],
  "nodes": [
    {
      "children": [
        1
      ],
      "name": "RootNode (gltf orientation matrix)",
      "rotation": [
        -0.70710678118654746,
        -0,
        -0,
        0.70710678118654757
      ]
    },
    {
      "children": [
        2
      ],
      "name": "RootNode (model correction matrix)"
    },
    {
      "children": [
        3
      ],
      "matrix": [
        1,
        0,
        0,
        0,
        0,
        0,
        1,
        0,
        0,
        -1,
        0,
        0,
        0,
        0,
        0,
        1
      ],
      "name": "20febdbbeecc4b7cb5c8f772514e8bd0.fbx"
    },
    {
      "children": [
        4
      ],
      "name": "RootNode"
    },
    {
      "children": [
        5,
        6
      ],
      "matrix": [
        1,
        0,
        0,
        0,
        0,
        2.2204460492503131e-16,
        -1,
        0,
        0,
        1,
        2.2204460492503131e-16,
        0,
        119.99296569824219,
        159.99996948242188,
        -120.61250305175781,
        1
      ],
      "name": "Box045"
    },
    {
      "mesh": 0,
      "name": "Box045_07 - Default_0"
    },
    {
      "mesh": 1,
      "name": "Box045_01 - Default_0"
    }
  ],
  "scene": 0,
  "scenes": [
    {
      "name": "OSG_Scene",
      "nodes": [
        0
      ]
    }
  ]
}

