{
  "accessors": [
    {
      "bufferView": 2,
      "componentType": 5126,
      "count": 493,
      "max": [
        3.4311599731445312,
        2.0185298919677734,
        1.4304200410842896
      ],
      "min": [
        -0.90828001499176025,
        -1.619860053062439,
        -1.1479899883270264
      ],
      "type": "VEC3"
    },
    {
      "bufferView": 2,
      "byteOffset": 5916,
      "componentType": 5126,
      "count": 493,
      "max": [
        0.96816295385360718,
        0.89632052183151245,
        1
      ],
      "min": [
        -0.96816295385360718,
        -0.95629817247390747,
        -1
      ],
      "type": "VEC3"
    },
    {
      "bufferView": 3,
      "componentType": 5126,
      "count": 493,
      "max": [
        0.9927482008934021,
        0.99943876266479492,
        0.999306321144104,
        1
      ],
      "min": [
        -0.99319583177566528,
        -0.99897640943527222,
        -0.99775975942611694,
        1
      ],
      "type": "VEC4"
    },
    {
      "bufferView": 1,
      "componentType": 5126,
      "count": 493,
      "max": [
        0.99278002977371216,
        0.99269002676010132
      ],
      "min": [
        0.0072200000286102295,
        0.0073099997825920582
      ],
      "type": "VEC2"
    },
    {
      "bufferView": 0,
      "componentType": 5125,
      "count": 768,
      "max": [
        492
      ],
      "min": [
        0
      ],
      "type": "SCALAR"
    },
    {
      "bufferView": 2,
      "byteOffset": 11832,
      "componentType": 5126,
      "count": 320,
      "max": [
        15.074910163879395,
        16.28053092956543,
        7.9437799453735352
      ],
      "min": [
        -4.7842998504638672,
        -1.3054800033569336,
        -1.2711199522018433
      ],
      "type": "VEC3"
    },
    {
      "bufferView": 2,
      "byteOffset": 15672,
      "componentType": 5126,
      "count": 320,
      "max": [
        0.97104257345199585,
        0.94444763660430908,
        1
      ],
      "min": [
        -0.90671902894973755,
        -0.92928022146224976,
        -1
      ],
      "type": "VEC3"
    },
    {
      "bufferView": 3,
      "byteOffset": 7888,
      "componentType": 5126,
      "count": 320,
      "max": [
        0.78044235706329346,
        0.93351727724075317,
        0.93825763463973999,
        1
      ],
      "min": [
        -0.99938255548477173,
        -0.84200114011764526,
        -0.98353475332260132,
        1
      ],
      "type": "VEC4"
    },
    {
      "bufferView": 1,
      "byteOffset": 3944,
      "componentType": 5126,
      "count": 320,
      "max": [
        0.9984700083732605,
        0.9984700083732605
      ],
      "min": [
        0.0015300000086426735,
        0.0015300000086426735
      ],
      "type": "VEC2"
    },
    {
      "bufferView": 0,
      "byteOffset": 3072,
      "componentType": 5125,
      "count": 480,
      "max": [
        319
      ],
      "min": [
        0
      ],
      "type": "SCALAR"
    },
    {
      "bufferView": 2,
      "byteOffset": 19512,
      "componentType": 5126,
      "count": 692,
      "max": [
        22.657899856567383,
        3.9623401165008545,
        9.8727998733520508
      ],
      "min": [
        -3.5924899578094482,
        -19.54564094543457,
        -1.6546100378036499
      ],
      "type": "VEC3"
    },
    {
      "bufferView": 2,
      "byteOffset": 27816,
      "componentType": 5126,
      "count": 692,
      "max": [
        0.98393648862838745,
        0.96322113275527954,
        1
      ],
      "min": [
        -0.88992881774902344,
        -0.98702520132064819,
        -1
      ],
      "type": "VEC3"
    },
    {
      "bufferView": 3,
      "byteOffset": 13008,
      "componentType": 5126,
      "count": 692,
      "max": [
        0.99154269695281982,
        0.99635708332061768,
        0.98606163263320923,
        1
      ],
      "min": [
        -0.99738425016403198,
        -0.99836933612823486,
        -0.99398714303970337,
        1
      ],
      "type": "VEC4"
    },
    {
      "bufferView": 1,
      "byteOffset": 6504,
      "componentType": 5126,
      "count": 692,
      "max": [
        0.99876999855041504,
        0.99870997667312622
      ],
      "min": [
        0.001230000052601099,
        0.0012900000438094139
      ],
      "type": "VEC2"
    },
    {
      "bufferView": 0,
      "byteOffset": 4992,
      "componentType": 5125,
      "count": 1026,
      "max": [
        691
      ],
      "min": [
        0
      ],
      "type": "SCALAR"
    },
    {
      "bufferView": 2,
      "byteOffset": 36120,
      "componentType": 5126,
      "count": 36,
      "max": [
        1.0492199659347534,
        1.0326800346374512,
        11.913450241088867
      ],
      "min": [
        -1.0075099468231201,
        -1.0095800161361694,
        -0.086549997329711914
      ],
      "type": "VEC3"
    },
    {
      "bufferView": 2,
      "byteOffset": 36552,
      "componentType": 5126,
      "count": 36,
      "max": [
        1,
        1,
        1
      ],
      "min": [
        -1,
        0,
        -1
      ],
      "type": "VEC3"
    },
    {
      "bufferView": 3,
      "byteOffset": 24080,
      "componentType": 5126,
      "count": 36,
      "max": [
        1,
        1,
        0,
        1
      ],
      "min": [
        -1,
        -1,
        0,
        1
      ],
      "type": "VEC4"
    },
    {
      "bufferView": 1,
      "byteOffset": 12040,
      "componentType": 5126,
      "count": 36,
      "max": [
        0.99434000253677368,
        0.99505001306533813
      ],
      "min": [
        0.0056599997915327549,
        0.0049499999731779099
      ],
      "type": "VEC2"
    },
    {
      "bufferView": 0,
      "byteOffset": 9096,
      "componentType": 5125,
      "count": 54,
      "max": [
        35
      ],
      "min": [
        0
      ],
      "type": "SCALAR"
    }
  ],
  "asset": {
    "extras": {
      "author": "juyo (https://sketchfab.com/juyo)",
      "license": "CC-BY-4.0 (http://creativecommons.org/licenses/by/4.0/)",
      "source": "https://sketchfab.com/models/8c05ee81a9724e9d8b7bacb340385896",
      "title": "Low Poly Crystals"
    },
    "generator": "Sketchfab-3.54.3",
    "version": "2.0"
  },
  "bufferViews": [
    {
      "buffer": 0,
      "byteLength": 9312,
      "byteOffset": 0,
      "name": "floatBufferViews",
      "target": 34963
    },
    {
      "buffer": 0,
      "byteLength": 12328,
      "byteOffset": 9312,
      "byteStride": 8,
      "name": "floatBufferViews",
      "target": 34962
    },
    {
      "buffer": 0,
      "byteLength": 36984,
      "byteOffset": 21640,
      "byteStride": 12,
      "name": "floatBufferViews",
      "target": 34962
    },
    {
      "buffer": 0,
      "byteLength": 24656,
      "byteOffset": 58624,
      "byteStride": 16,
      "name": "floatBufferViews",
      "target": 34962
    }
  ],
  "buffers": [
    {
      "byteLength": 83280,
      "uri": "scene.bin"
    }
  ],
  "images": [
    {
      "uri": "textures/Material.003_metallicRoughness.png"
    },
    {
      "uri": "textures/Material.003_baseColor.png"
    },
    {
      "uri": "textures/Material.003_emissive.png"
    },
    {
      "uri": "textures/Material.004_metallicRoughness.png"
    },
    {
      "uri": "textures/Material.004_baseColor.png"
    },
    {
      "uri": "textures/Material.004_emissive.png"
    },
    {
      "uri": "textures/Material.001_metallicRoughness.png"
    },
    {
      "uri": "textures/Material.001_baseColor.png"
    },
    {
      "uri": "textures/Material.001_emissive.png"
    },
    {
      "uri": "textures/Material.002_metallicRoughness.png"
    },
    {
      "uri": "textures/Material.002_baseColor.png"
    }
  ],
  "materials": [
    {
      "alphaMode": "BLEND",
      "doubleSided": false,
      "name": "Material.002",
      "pbrMetallicRoughness": {
        "baseColorFactor": [
          1,
          1,
          1,
          0
        ],
        "baseColorTexture": {
          "index": 10,
          "texCoord": 0
        },
        "metallicFactor": 0,
        "metallicRoughnessTexture": {
          "index": 9,
          "texCoord": 0
        },
        "roughnessFactor": 1
      }
    },
    {
      "alphaMode": "BLEND",
      "doubleSided": true,
      "emissiveFactor": [
        1,
        1,
        1
      ],
      "emissiveTexture": {
        "index": 2,
        "texCoord": 0
      },
      "name": "Material.003",
      "pbrMetallicRoughness": {
        "baseColorFactor": [
          1,
          1,
          1,
          0.51699380589999999
        ],
        "baseColorTexture": {
          "index": 1,
          "texCoord": 0
        },
        "metallicFactor": 0,
        "metallicRoughnessTexture": {
          "index": 0,
          "texCoord": 0
        },
        "roughnessFactor": 0.56547865429999999
      }
    },
    {
      "alphaMode": "BLEND",
      "doubleSided": true,
      "emissiveFactor": [
        1,
        1,
        1
      ],
      "emissiveTexture": {
        "index": 8,
        "texCoord": 0
      },
      "name": "Material.001",
      "pbrMetallicRoughness": {
        "baseColorFactor": [
          1,
          1,
          1,
          0.52911501800000005
        ],
        "baseColorTexture": {
          "index": 7,
          "texCoord": 0
        },
        "metallicFactor": 0,
        "metallicRoughnessTexture": {
          "index": 6,
          "texCoord": 0
        },
        "roughnessFactor": 0.52911501800000005
      }
    },
    {
      "alphaMode": "BLEND",
      "doubleSided": true,
      "emissiveFactor": [
        0.050000000000000003,
        0.050000000000000003,
        0.050000000000000003
      ],
      "emissiveTexture": {
        "index": 5,
        "texCoord": 0
      },
      "name": "Material.004",
      "pbrMetallicRoughness": {
        "baseColorFactor": [
          1,
          1,
          1,
          0.52000762199999995
        ],
        "baseColorTexture": {
          "index": 4,
          "texCoord": 0
        },
        "metallicFactor": 0,
        "metallicRoughnessTexture": {
          "index": 3,
          "texCoord": 0
        },
        "roughnessFactor": 0.52305441190000002
      }
    }
  ],
  "meshes": [
    {
      "name": "Diamond_0",
      "primitives": [
        {
          "attributes": {
            "NORMAL": 1,
            "POSITION": 0,
            "TANGENT": 2,
            "TEXCOORD_0": 3
          },
          "indices": 4,
          "material": 3,
          "mode": 4
        }
      ]
    },
    {
      "name": "Ruby_0",
      "primitives": [
        {
          "attributes": {
            "NORMAL": 6,
            "POSITION": 5,
            "TANGENT": 7,
            "TEXCOORD_0": 8
          },
          "indices": 9,
          "material": 2,
          "mode": 4
        }
      ]
    },
    {
      "name": "Sapphire_0",
      "primitives": [
        {
          "attributes": {
            "NORMAL": 11,
            "POSITION": 10,
            "TANGENT": 12,
            "TEXCOORD_0": 13
          },
          "indices": 14,
          "material": 1,
          "mode": 4
        }
      ]
    },
    {
      "name": "Plane.008_0",
      "primitives": [
        {
          "attributes": {
            "NORMAL": 16,
            "POSITION": 15,
            "TANGENT": 17,
            "TEXCOORD_0": 18
          },
          "indices": 19,
          "material": 0,
          "mode": 4
        }
      ]
    }
  ],
  "nodes": [
    {
      "children": [
        1
      ],
      "name": "RootNode (gltf orientation matrix)",
      "rotation": [
        -0.70710678118654746,
        -0,
        -0,
        0.70710678118654757
      ]
    },
    {
      "children": [
        2
      ],
      "name": "RootNode (model correction matrix)"
    },
    {
      "children": [
        3,
        5,
        7,
        9
      ],
      "name": "Root"
    },
    {
      "children": [
        4
      ],
      "matrix": [
        0.39642000000000011,
        0.073460000000000011,
        0.17722000000000002,
        0,
        -0.06831000000000001,
        0.37522000000000005,
        -0.0027400000000000007,
        0,
        -0.40846000000000005,
        -0.067470000000000016,
        0.94164000000000014,
        0,
        -0.87922000000000011,
        0.18458000000000002,
        0.87373000000000012,
        1
      ],
      "name": "Diamond"
    },
    {
      "mesh": 0,
      "name": "Diamond_0"
    },
    {
      "children": [
        6
      ],
      "matrix": [
        -0.046160000000000014,
        -0.013210000000000003,
        0.014750000000000003,
        0,
        0.018340000000000002,
        -0.043210000000000012,
        0.018680000000000002,
        0,
        0.032650000000000012,
        0.094650000000000026,
        0.18693000000000004,
        0,
        3.5052399999999997,
        0.17985000000000001,
        0.11043000000000001,
        1
      ],
      "name": "Ruby"
    },
    {
      "mesh": 1,
      "name": "Ruby_0"
    },
    {
      "children": [
        8
      ],
      "matrix": [
        -0.038970000000000005,
        0.0061500000000000018,
        0.015050000000000003,
        0,
        -0.011960000000000002,
        -0.038790000000000005,
        -0.015110000000000002,
        0,
        0.04207000000000001,
        -0.065870000000000012,
        0.13584000000000002,
        0,
        -4.3577799999999991,
        0.00096000000000000035,
        0.10578000000000001,
        1
      ],
      "name": "Sapphire"
    },
    {
      "mesh": 2,
      "name": "Sapphire_0"
    },
    {
      "children": [
        10
      ],
      "matrix": [
        -0,
        2,
        0,
        0,
        0,
        0,
        2,
        0,
        1,
        0,
        -0,
        0,
        -6.3461099999999995,
        0.30398000000000008,
        1.81687,
        1
      ],
      "name": "Plane.008"
    },
    {
      "mesh": 3,
      "name": "Plane.008_0"
    }
  ],
  "samplers": [
    {
      "magFilter": 9729,
      "minFilter": 9987,
      "wrapS": 10497,
      "wrapT": 10497
    }
  ],
  "scene": 0,
  "scenes": [
    {
      "name": "OSG_Scene",
      "nodes": [
        0
      ]
    }
  ],
  "textures": [
    {
      "sampler": 0,
      "source": 0
    },
    {
      "sampler": 0,
      "source": 1
    },
    {
      "sampler": 0,
      "source": 2
    },
    {
      "sampler": 0,
      "source": 3
    },
    {
      "sampler": 0,
      "source": 4
    },
    {
      "sampler": 0,
      "source": 5
    },
    {
      "sampler": 0,
      "source": 6
    },
    {
      "sampler": 0,
      "source": 7
    },
    {
      "sampler": 0,
      "source": 8
    },
    {
      "sampler": 0,
      "source": 9
    },
    {
      "sampler": 0,
      "source": 10
    }
  ]
}

