{
  "accessors": [
    {
      "bufferView": 2,
      "componentType": 5126,
      "count": 2202,
      "max": [
        0.29001837968826294,
        0.29001840949058533,
        1.0999999046325684
      ],
      "min": [
        -0.29001837968826294,
        -0.29001840949058533,
        0
      ],
      "type": "VEC3"
    },
    {
      "bufferView": 2,
      "byteOffset": 26424,
      "componentType": 5126,
      "count": 2202,
      "max": [
        1,
        1,
        1
      ],
      "min": [
        -1,
        -1,
        -1
      ],
      "type": "VEC3"
    },
    {
      "bufferView": 1,
      "componentType": 5126,
      "count": 2202,
      "max": [
        0.98088794946670532,
        0.98749995231628418
      ],
      "min": [
        0.38749998807907104,
        0.037673711776733398
      ],
      "type": "VEC2"
    },
    {
      "bufferView": 0,
      "componentType": 5125,
      "count": 3318,
      "max": [
        2201
      ],
      "min": [
        0
      ],
      "type": "SCALAR"
    },
    {
      "bufferView": 2,
      "byteOffset": 52848,
      "componentType": 5126,
      "count": 382,
      "max": [
        0.079999975860118866,
        0.099999994039535522,
        0.12999999523162842
      ],
      "min": [
        -0.079999975860118866,
        -0.099999994039535522,
        -0.10000002384185791
      ],
      "type": "VEC3"
    },
    {
      "bufferView": 2,
      "byteOffset": 57432,
      "componentType": 5126,
      "count": 382,
      "max": [
        1,
        1,
        1
      ],
      "min": [
        -1,
        -1,
        -0.9807855486869812
      ],
      "type": "VEC3"
    },
    {
      "bufferView": 1,
      "byteOffset": 17616,
      "componentType": 5126,
      "count": 382,
      "max": [
        0.85925602912902832,
        0.98750001192092896
      ],
      "min": [
        0.38749998807907104,
        0.76920604705810547
      ],
      "type": "VEC2"
    },
    {
      "bufferView": 0,
      "byteOffset": 13272,
      "componentType": 5125,
      "count": 600,
      "max": [
        381
      ],
      "min": [
        0
      ],
      "type": "SCALAR"
    },
    {
      "bufferView": 2,
      "byteOffset": 62016,
      "componentType": 5126,
      "count": 526,
      "max": [
        0.27905693650245667,
        0.27905693650245667,
        0.074999973177909851
      ],
      "min": [
        -0.27905693650245667,
        -0.27905693650245667,
        -0.025000002235174179
      ],
      "type": "VEC3"
    },
    {
      "bufferView": 2,
      "byteOffset": 68328,
      "componentType": 5126,
      "count": 526,
      "max": [
        0.99917817115783691,
        0.99860697984695435,
        1
      ],
      "min": [
        -0.99917817115783691,
        -0.99860697984695435,
        -1
      ],
      "type": "VEC3"
    },
    {
      "bufferView": 1,
      "byteOffset": 20672,
      "componentType": 5126,
      "count": 526,
      "max": [
        0.8511156439781189,
        0.98041665554046631
      ],
      "min": [
        0.078412830829620361,
        0.18999999761581421
      ],
      "type": "VEC2"
    },
    {
      "bufferView": 0,
      "byteOffset": 15672,
      "componentType": 5125,
      "count": 798,
      "max": [
        525
      ],
      "min": [
        0
      ],
      "type": "SCALAR"
    }
  ],
  "asset": {
    "extras": {
      "author": "MRowa (https://sketchfab.com/MRowa)",
      "license": "CC-BY-SA-4.0 (http://creativecommons.org/licenses/by-sa/4.0/)",
      "source": "https://sketchfab.com/3d-models/user-terminal-c75bf05185054aacae878c60ba1ad75a",
      "title": "User Terminal"
    },
    "generator": "Sketchfab-8.59.0",
    "version": "2.0"
  },
  "bufferViews": [
    {
      "buffer": 0,
      "byteLength": 18864,
      "byteOffset": 0,
      "name": "floatBufferViews",
      "target": 34963
    },
    {
      "buffer": 0,
      "byteLength": 24880,
      "byteOffset": 18864,
      "byteStride": 8,
      "name": "floatBufferViews",
      "target": 34962
    },
    {
      "buffer": 0,
      "byteLength": 74640,
      "byteOffset": 43744,
      "byteStride": 12,
      "name": "floatBufferViews",
      "target": 34962
    }
  ],
  "buffers": [
    {
      "byteLength": 118384,
      "uri": "scene.bin"
    }
  ],
  "images": [
    {
      "uri": "textures/Placeable_baseColor.png"
    },
    {
      "uri": "textures/Placeable_metallicRoughness.png"
    },
    {
      "uri": "textures/Placeable_emissive.png"
    }
  ],
  "materials": [
    {
      "doubleSided": true,
      "emissiveFactor": [
        1,
        1,
        1
      ],
      "emissiveTexture": {
        "index": 2,
        "texCoord": 0
      },
      "name": "Placeable",
      "pbrMetallicRoughness": {
        "baseColorFactor": [
          1,
          1,
          1,
          1
        ],
        "baseColorTexture": {
          "index": 0,
          "texCoord": 0
        },
        "metallicFactor": 1,
        "metallicRoughnessTexture": {
          "index": 1,
          "texCoord": 0
        },
        "roughnessFactor": 0.5
      }
    }
  ],
  "meshes": [
    {
      "name": "UserTerminal_Body_Placeable_0",
      "primitives": [
        {
          "attributes": {
            "NORMAL": 1,
            "POSITION": 0,
            "TEXCOORD_0": 2
          },
          "indices": 3,
          "material": 0,
          "mode": 4
        }
      ]
    },
    {
      "name": "UserTerminal_Neck_Placeable_0",
      "primitives": [
        {
          "attributes": {
            "NORMAL": 5,
            "POSITION": 4,
            "TEXCOORD_0": 6
          },
          "indices": 7,
          "material": 0,
          "mode": 4
        }
      ]
    },
    {
      "name": "UserTerminal_Display_Placeable_0",
      "primitives": [
        {
          "attributes": {
            "NORMAL": 9,
            "POSITION": 8,
            "TEXCOORD_0": 10
          },
          "indices": 11,
          "material": 0,
          "mode": 4
        }
      ]
    }
  ],
  "nodes": [
    {
      "children": [
        1
      ],
      "name": "RootNode (gltf orientation matrix)",
      "rotation": [
        -0.70710678118654746,
        -0,
        -0,
        0.70710678118654757
      ]
    },
    {
      "children": [
        2
      ],
      "name": "RootNode (model correction matrix)"
    },
    {
      "children": [
        3
      ],
      "matrix": [
        1,
        0,
        0,
        0,
        0,
        0,
        1,
        0,
        0,
        -1,
        0,
        0,
        0,
        0,
        0,
        1
      ],
      "name": "eb7facb9e47b4e4fb6cf91b675931cc6.fbx"
    },
    {
      "children": [
        4
      ],
      "name": "RootNode"
    },
    {
      "children": [
        5,
        7
      ],
      "matrix": [
        100,
        0,
        0,
        0,
        0,
        -1.6292067939183141e-05,
        -99.999999999998678,
        0,
        0,
        99.999999999998678,
        -1.6292067939183141e-05,
        0,
        0,
        0,
        0,
        1
      ],
      "name": "UserTerminal"
    },
    {
      "children": [
        6
      ],
      "matrix": [
        1,
        0,
        0,
        0,
        0,
        1,
        -2.646977960169688e-23,
        0,
        0,
        2.646977960169688e-23,
        1,
        0,
        0,
        0,
        0,
        1
      ],
      "name": "UserTerminal_Body"
    },
    {
      "mesh": 0,
      "name": "UserTerminal_Body_Placeable_0"
    },
    {
      "children": [
        8,
        9
      ],
      "matrix": [
        1,
        0,
        0,
        0,
        0,
        0.49999997476321711,
        0.86602541835490143,
        0,
        0,
        -0.86602541835490143,
        0.49999997476321711,
        0,
        0,
        -2.9802322387695312e-08,
        0.99999988079071045,
        1
      ],
      "name": "UserTerminal_Neck"
    },
    {
      "mesh": 1,
      "name": "UserTerminal_Neck_Placeable_0"
    },
    {
      "children": [
        10
      ],
      "matrix": [
        1,
        -1.1102232893229531e-16,
        -1.922962784218683e-16,
        0,
        1.1102232893229531e-16,
        1,
        0,
        0,
        1.922962784218683e-16,
        -2.1349180675408901e-32,
        1,
        0,
        -1.7963062925935822e-25,
        0.060000106692314148,
        0.12999996542930603,
        1
      ],
      "name": "UserTerminal_Display"
    },
    {
      "mesh": 2,
      "name": "UserTerminal_Display_Placeable_0"
    }
  ],
  "samplers": [
    {
      "magFilter": 9728,
      "minFilter": 9728,
      "wrapS": 10497,
      "wrapT": 10497
    }
  ],
  "scene": 0,
  "scenes": [
    {
      "name": "OSG_Scene",
      "nodes": [
        0
      ]
    }
  ],
  "textures": [
    {
      "sampler": 0,
      "source": 0
    },
    {
      "sampler": 0,
      "source": 1
    },
    {
      "sampler": 0,
      "source": 2
    }
  ]
}

