{
  "accessors": [
    {
      "bufferView": 1,
      "componentType": 5126,
      "count": 12047,
      "max": [
        2.0012989044189453,
        2.0057849884033203,
        2.7100000381469727
      ],
      "min": [
        0,
        0,
        0
      ],
      "type": "VEC3"
    },
    {
      "bufferView": 1,
      "byteOffset": 144564,
      "componentType": 5126,
      "count": 12047,
      "max": [
        1,
        1,
        1
      ],
      "min": [
        -1,
        -1,
        -1
      ],
      "type": "VEC3"
    },
    {
      "bufferView": 0,
      "componentType": 5125,
      "count": 29529,
      "max": [
        12046
      ],
      "min": [
        0
      ],
      "type": "SCALAR"
    },
    {
      "bufferView": 1,
      "byteOffset": 289128,
      "componentType": 5126,
      "count": 3343,
      "max": [
        2.0012989044189453,
        2,
        2.7100000381469727
      ],
      "min": [
        0.0012990236282348633,
        0,
        0.071999996900558472
      ],
      "type": "VEC3"
    },
    {
      "bufferView": 1,
      "byteOffset": 329244,
      "componentType": 5126,
      "count": 3343,
      "max": [
        1,
        1,
        1
      ],
      "min": [
        -1,
        -1,
        -1
      ],
      "type": "VEC3"
    },
    {
      "bufferView": 0,
      "byteOffset": 118116,
      "componentType": 5125,
      "count": 6042,
      "max": [
        3342
      ],
      "min": [
        0
      ],
      "type": "SCALAR"
    },
    {
      "bufferView": 1,
      "byteOffset": 369360,
      "componentType": 5126,
      "count": 240,
      "max": [
        0.58408904075622559,
        1.5526559352874756,
        0.74442398548126221
      ],
      "min": [
        0.57643002271652222,
        1.5341150760650635,
        0.72685098648071289
      ],
      "type": "VEC3"
    },
    {
      "bufferView": 1,
      "byteOffset": 372240,
      "componentType": 5126,
      "count": 240,
      "max": [
        0.99319028854370117,
        0.95132780075073242,
        0.96279305219650269
      ],
      "min": [
        -0.99318116903305054,
        -0.95130717754364014,
        -0.96279305219650269
      ],
      "type": "VEC3"
    },
    {
      "bufferView": 0,
      "byteOffset": 142284,
      "componentType": 5125,
      "count": 396,
      "max": [
        239
      ],
      "min": [
        0
      ],
      "type": "SCALAR"
    }
  ],
  "asset": {
    "extras": {
      "author": "Bachklamk (https://sketchfab.com/Bachklamk)",
      "license": "CC-BY-4.0 (http://creativecommons.org/licenses/by/4.0/)",
      "source": "https://sketchfab.com/models/9ffa4da63bab4063b695d4d3d2e2e1b4",
      "title": "TRONESQUE"
    },
    "generator": "Sketchfab-3.18.7",
    "version": "2.0"
  },
  "bufferViews": [
    {
      "buffer": 0,
      "byteLength": 143868,
      "byteOffset": 0,
      "name": "floatBufferViews",
      "target": 34963
    },
    {
      "buffer": 0,
      "byteLength": 375120,
      "byteOffset": 143868,
      "byteStride": 12,
      "name": "floatBufferViews",
      "target": 34962
    }
  ],
  "buffers": [
    {
      "byteLength": 518988,
      "uri": "scene.bin"
    }
  ],
  "materials": [
    {
      "doubleSided": true,
      "emissiveFactor": [
        0,
        0,
        0
      ],
      "name": "Black_Gloss",
      "pbrMetallicRoughness": {
        "baseColorFactor": [
          0,
          0,
          0,
          1
        ],
        "metallicFactor": 0.2471779197,
        "roughnessFactor": 0
      }
    },
    {
      "doubleSided": true,
      "emissiveFactor": [
        0,
        1,
        1
      ],
      "name": "Blue_Glow",
      "pbrMetallicRoughness": {
        "baseColorFactor": [
          0.64000000000000001,
          0.64000000000000001,
          0.64000000000000001,
          1
        ],
        "metallicFactor": 0,
        "roughnessFactor": 0.59999999999999998
      }
    },
    {
      "doubleSided": true,
      "emissiveFactor": [
        1,
        1,
        0
      ],
      "name": "Orange_Glow",
      "pbrMetallicRoughness": {
        "baseColorFactor": [
          0.64000000000000001,
          0.64000000000000001,
          0.64000000000000001,
          1
        ],
        "metallicFactor": 0,
        "roughnessFactor": 0.59999999999999998
      }
    }
  ],
  "meshes": [
    {
      "primitives": [
        {
          "attributes": {
            "NORMAL": 1,
            "POSITION": 0
          },
          "indices": 2,
          "material": 0,
          "mode": 4
        }
      ]
    },
    {
      "primitives": [
        {
          "attributes": {
            "NORMAL": 4,
            "POSITION": 3
          },
          "indices": 5,
          "material": 1,
          "mode": 4
        }
      ]
    },
    {
      "primitives": [
        {
          "attributes": {
            "NORMAL": 7,
            "POSITION": 6
          },
          "indices": 8,
          "material": 2,
          "mode": 4
        }
      ]
    }
  ],
  "nodes": [
    {
      "children": [
        1
      ],
      "name": "RootNode (gltf orientation matrix)",
      "rotation": [
        -0.70710678118654746,
        -0,
        -0,
        0.70710678118654757
      ]
    },
    {
      "children": [
        2
      ],
      "name": "RootNode (model correction matrix)"
    },
    {
      "children": [
        3
      ],
      "matrix": [
        1,
        0,
        0,
        0,
        0,
        1,
        0,
        0,
        0,
        0,
        1,
        0,
        -1.0012990236282349,
        -1,
        -0.47999998927116394,
        1
      ],
      "name": "CYBER.obj.cleaner.materialmerger.gles"
    },
    {
      "children": [
        4,
        5,
        6
      ],
      "name": ""
    },
    {
      "mesh": 0,
      "name": ""
    },
    {
      "mesh": 1,
      "name": ""
    },
    {
      "mesh": 2,
      "name": ""
    }
  ],
  "scene": 0,
  "scenes": [
    {
      "name": "OSG_Scene",
      "nodes": [
        0
      ]
    }
  ]
}

