{
  "accessors": [
    {
      "bufferView": 2,
      "componentType": 5126,
      "count": 56537,
      "max": [
        -21.010126113891602,
        23.02985954284668,
        50.671588897705078
      ],
      "min": [
        -46.144634246826172,
        -12.840474128723145,
        -1.0749262571334839
      ],
      "type": "VEC3"
    },
    {
      "bufferView": 2,
      "byteOffset": 678444,
      "componentType": 5126,
      "count": 56537,
      "max": [
        0.99994903802871704,
        0.99966853857040405,
        0.99871760606765747
      ],
      "min": [
        -0.99994897842407227,
        -0.99966853857040405,
        -0.999786376953125
      ],
      "type": "VEC3"
    },
    {
      "bufferView": 3,
      "componentType": 5126,
      "count": 56537,
      "max": [
        0.99759727716445923,
        0.99981570243835449,
        0.99999839067459106,
        1
      ],
      "min": [
        -0.99759721755981445,
        -0.99981564283370972,
        -0.99861639738082886,
        -1
      ],
      "type": "VEC4"
    },
    {
      "bufferView": 1,
      "componentType": 5126,
      "count": 56537,
      "max": [
        0.91666674613952637,
        1
      ],
      "min": [
        -0.083333313465118408,
        0
      ],
      "type": "VEC2"
    },
    {
      "bufferView": 0,
      "componentType": 5125,
      "count": 56577,
      "max": [
        56536
      ],
      "min": [
        0
      ],
      "type": "SCALAR"
    }
  ],
  "asset": {
    "extras": {
      "author": "mreimer (https://sketchfab.com/mreimer)",
      "license": "CC-BY-4.0 (http://creativecommons.org/licenses/by/4.0/)",
      "source": "https://sketchfab.com/3d-models/crystals-of-power-f07e839957784ea390d512eab6fb61a8",
      "title": "Crystals of Power"
    },
    "generator": "Sketchfab-7.27.0",
    "version": "2.0"
  },
  "bufferViews": [
    {
      "buffer": 0,
      "byteLength": 226308,
      "byteOffset": 0,
      "name": "floatBufferViews",
      "target": 34963
    },
    {
      "buffer": 0,
      "byteLength": 452296,
      "byteOffset": 226308,
      "byteStride": 8,
      "name": "floatBufferViews",
      "target": 34962
    },
    {
      "buffer": 0,
      "byteLength": 1356888,
      "byteOffset": 678604,
      "byteStride": 12,
      "name": "floatBufferViews",
      "target": 34962
    },
    {
      "buffer": 0,
      "byteLength": 904592,
      "byteOffset": 2035492,
      "byteStride": 16,
      "name": "floatBufferViews",
      "target": 34962
    }
  ],
  "buffers": [
    {
      "byteLength": 2940084,
      "uri": "scene.bin"
    }
  ],
  "extensionsRequired": [
    "KHR_materials_pbrSpecularGlossiness"
  ],
  "extensionsUsed": [
    "KHR_materials_pbrSpecularGlossiness"
  ],
  "images": [
    {
      "uri": "textures/Scene_-_Root_diffuse.png"
    },
    {
      "uri": "textures/Scene_-_Root_emissive.png"
    },
    {
      "uri": "textures/Scene_-_Root_normal.png"
    }
  ],
  "materials": [
    {
      "doubleSided": true,
      "emissiveFactor": [
        1,
        1,
        1
      ],
      "emissiveTexture": {
        "index": 1,
        "texCoord": 0
      },
      "extensions": {
        "KHR_materials_pbrSpecularGlossiness": {
          "diffuseFactor": [
            1,
            1,
            1,
            1
          ],
          "diffuseTexture": {
            "index": 0,
            "texCoord": 0
          },
          "glossinessFactor": 0.40000000000000002,
          "specularFactor": [
            0,
            0,
            0
          ]
        }
      },
      "name": "Scene_-_Root",
      "normalTexture": {
        "index": 2,
        "scale": 1,
        "texCoord": 0
      }
    }
  ],
  "meshes": [
    {
      "name": "Crystal__0",
      "primitives": [
        {
          "attributes": {
            "NORMAL": 1,
            "POSITION": 0,
            "TANGENT": 2,
            "TEXCOORD_0": 3
          },
          "indices": 4,
          "material": 0,
          "mode": 4
        }
      ]
    }
  ],
  "nodes": [
    {
      "children": [
        1
      ],
      "name": "RootNode (gltf orientation matrix)",
      "rotation": [
        -0.70710678118654746,
        -0,
        -0,
        0.70710678118654757
      ]
    },
    {
      "children": [
        2
      ],
      "name": "RootNode (model correction matrix)"
    },
    {
      "children": [
        3
      ],
      "matrix": [
        1,
        0,
        0,
        0,
        0,
        0,
        1,
        0,
        0,
        -1,
        0,
        0,
        0,
        0,
        0,
        1
      ],
      "name": "Crystal1.fbx"
    },
    {
      "children": [
        4
      ],
      "name": "RootNode"
    },
    {
      "children": [
        5
      ],
      "matrix": [
        25.399999618530273,
        0,
        0,
        0,
        0,
        5.6399328803925005e-15,
        -25.399999618530273,
        0,
        0,
        25.399999618530273,
        5.6399328803925005e-15,
        0,
        0,
        0,
        0,
        1
      ],
      "name": "Crystal"
    },
    {
      "children": [
        6
      ],
      "matrix": [
        1,
        0,
        -0,
        0,
        0,
        1,
        0,
        0,
        0,
        0,
        1,
        0,
        33.001220703125,
        -2.0542469024658203,
        -0.91030406951904297,
        1
      ],
      "name": ""
    },
    {
      "mesh": 0,
      "name": "Crystal__0"
    }
  ],
  "samplers": [
    {
      "magFilter": 9729,
      "minFilter": 9987,
      "wrapS": 10497,
      "wrapT": 10497
    }
  ],
  "scene": 0,
  "scenes": [
    {
      "name": "OSG_Scene",
      "nodes": [
        0
      ]
    }
  ],
  "textures": [
    {
      "sampler": 0,
      "source": 0
    },
    {
      "sampler": 0,
      "source": 1
    },
    {
      "sampler": 0,
      "source": 2
    }
  ]
}

